<svg xmlns="http://www.w3.org/2000/svg" xmlns:xlink="http://www.w3.org/1999/xlink" width="1080" zoomAndPan="magnify" viewBox="0 0 810 809.999993" height="1080" preserveAspectRatio="xMidYMid meet" version="1.0"><defs><clipPath id="a8c12bc069"><path d="M 67 188.738281 L 743.796875 188.738281 L 743.796875 621 L 67 621 Z M 67 188.738281 " clip-rule="nonzero"/></clipPath></defs><g clip-path="url(#a8c12bc069)"><path fill="#ffffff" d="M 407.472656 201.261719 C 408.964844 203.511719 410.101562 205.925781 410.886719 208.507812 C 411.667969 211.089844 412.066406 213.730469 412.070312 216.429688 L 412.070312 593.335938 C 412.070312 594.574219 411.984375 595.808594 411.816406 597.035156 C 411.648438 598.261719 411.398438 599.46875 411.066406 600.664062 C 410.734375 601.855469 410.324219 603.019531 409.835938 604.160156 C 409.347656 605.296875 408.785156 606.394531 408.148438 607.457031 C 407.511719 608.519531 406.808594 609.535156 406.035156 610.5 C 405.261719 611.46875 404.425781 612.378906 403.53125 613.234375 C 402.632812 614.089844 401.683594 614.878906 400.683594 615.605469 C 399.679688 616.335938 398.632812 616.992188 397.542969 617.578125 C 396.449219 618.164062 395.324219 618.675781 394.164062 619.109375 C 393.003906 619.542969 391.820312 619.898438 390.613281 620.175781 C 389.40625 620.449219 388.183594 620.644531 386.949219 620.753906 C 385.714844 620.863281 384.480469 620.894531 383.242188 620.839844 C 382.003906 620.78125 380.777344 620.644531 379.558594 620.425781 C 378.339844 620.203125 377.140625 619.902344 375.960938 619.523438 C 374.78125 619.140625 373.636719 618.679688 372.519531 618.144531 C 371.402344 617.609375 370.324219 617 369.292969 616.320312 L 205.070312 507.84375 L 103.867188 507.84375 C 102.660156 507.84375 101.460938 507.785156 100.261719 507.667969 C 99.0625 507.546875 97.871094 507.371094 96.6875 507.136719 C 95.503906 506.902344 94.335938 506.609375 93.183594 506.261719 C 92.03125 505.910156 90.898438 505.503906 89.785156 505.042969 C 88.671875 504.582031 87.582031 504.070312 86.519531 503.5 C 85.457031 502.933594 84.425781 502.316406 83.421875 501.644531 C 82.417969 500.976562 81.453125 500.261719 80.519531 499.496094 C 79.589844 498.734375 78.699219 497.925781 77.84375 497.074219 C 76.992188 496.222656 76.183594 495.332031 75.417969 494.398438 C 74.65625 493.46875 73.9375 492.503906 73.269531 491.5 C 72.597656 490.5 71.980469 489.46875 71.410156 488.40625 C 70.84375 487.34375 70.328125 486.257812 69.867188 485.144531 C 69.40625 484.03125 69 482.898438 68.652344 481.746094 C 68.300781 480.59375 68.007812 479.425781 67.773438 478.246094 C 67.539062 477.066406 67.363281 475.875 67.242188 474.675781 C 67.125 473.476562 67.066406 472.277344 67.066406 471.070312 L 67.066406 338.695312 C 67.066406 337.492188 67.125 336.289062 67.242188 335.089844 C 67.363281 333.890625 67.539062 332.703125 67.773438 331.519531 C 68.007812 330.339844 68.300781 329.171875 68.652344 328.019531 C 69 326.867188 69.40625 325.734375 69.867188 324.625 C 70.328125 323.511719 70.84375 322.421875 71.410156 321.359375 C 71.980469 320.300781 72.597656 319.265625 73.269531 318.265625 C 73.9375 317.265625 74.65625 316.296875 75.417969 315.367188 C 76.183594 314.4375 76.992188 313.546875 77.84375 312.695312 C 78.699219 311.84375 79.589844 311.035156 80.519531 310.269531 C 81.453125 309.507812 82.417969 308.789062 83.421875 308.121094 C 84.425781 307.453125 85.457031 306.832031 86.519531 306.265625 C 87.582031 305.699219 88.671875 305.183594 89.785156 304.722656 C 90.898438 304.261719 92.03125 303.855469 93.183594 303.507812 C 94.335938 303.15625 95.503906 302.863281 96.6875 302.628906 C 97.871094 302.394531 99.0625 302.21875 100.261719 302.101562 C 101.460938 301.984375 102.660156 301.921875 103.867188 301.921875 L 205.070312 301.921875 L 369.292969 193.449219 C 370.046875 192.953125 370.820312 192.496094 371.621094 192.074219 C 372.417969 191.65625 373.234375 191.277344 374.070312 190.9375 C 374.90625 190.597656 375.757812 190.300781 376.621094 190.042969 C 377.488281 189.789062 378.363281 189.574219 379.25 189.40625 C 380.136719 189.234375 381.027344 189.109375 381.925781 189.027344 C 382.824219 188.945312 383.722656 188.90625 384.625 188.910156 C 385.527344 188.914062 386.429688 188.964844 387.324219 189.058594 C 388.222656 189.152344 389.113281 189.289062 389.996094 189.46875 C 390.882812 189.652344 391.753906 189.875 392.617188 190.140625 C 393.476562 190.40625 394.324219 190.714844 395.15625 191.066406 C 395.988281 191.414062 396.800781 191.804688 397.59375 192.234375 C 398.386719 192.660156 399.160156 193.128906 399.90625 193.632812 C 400.652344 194.136719 401.375 194.675781 402.070312 195.253906 C 402.765625 195.828125 403.429688 196.4375 404.0625 197.074219 C 404.699219 197.714844 405.300781 198.386719 405.871094 199.085938 C 406.441406 199.785156 406.972656 200.511719 407.472656 201.261719 Z M 732.695312 291.351562 C 746.496094 305.140625 746.496094 328.125 732.695312 341.914062 L 667.835938 406.722656 L 730.855469 470.152344 C 731.585938 471 732.277344 471.878906 732.921875 472.792969 C 733.570312 473.703125 734.175781 474.644531 734.734375 475.613281 C 735.292969 476.582031 735.804688 477.574219 736.273438 478.589844 C 736.738281 479.605469 737.15625 480.640625 737.527344 481.699219 C 737.898438 482.753906 738.214844 483.824219 738.484375 484.910156 C 738.753906 485.992188 738.972656 487.089844 739.140625 488.195312 C 739.304688 489.300781 739.421875 490.410156 739.484375 491.527344 C 739.546875 492.644531 739.558594 493.761719 739.515625 494.878906 C 739.472656 495.996094 739.378906 497.109375 739.234375 498.21875 C 739.085938 499.328125 738.890625 500.425781 738.640625 501.515625 C 738.390625 502.605469 738.09375 503.683594 737.742188 504.746094 C 737.394531 505.808594 736.992188 506.851562 736.546875 507.875 C 736.097656 508.898438 735.605469 509.902344 735.0625 510.878906 C 734.523438 511.859375 733.9375 512.8125 733.304688 513.734375 C 732.675781 514.660156 732.003906 515.550781 731.289062 516.410156 C 730.574219 517.273438 729.824219 518.097656 729.03125 518.890625 C 728.238281 519.679688 727.414062 520.433594 726.550781 521.144531 C 725.691406 521.859375 724.796875 522.53125 723.871094 523.160156 C 722.949219 523.789062 721.996094 524.375 721.015625 524.917969 C 720.035156 525.457031 719.035156 525.953125 718.007812 526.398438 C 716.984375 526.847656 715.9375 527.246094 714.875 527.59375 C 713.8125 527.941406 712.734375 528.242188 711.644531 528.492188 C 710.554688 528.738281 709.453125 528.9375 708.34375 529.082031 C 707.234375 529.230469 706.121094 529.324219 705 529.363281 C 703.882812 529.40625 702.765625 529.398438 701.648438 529.332031 C 700.53125 529.269531 699.417969 529.15625 698.3125 528.988281 C 697.207031 528.824219 696.109375 528.605469 695.023438 528.335938 C 693.9375 528.066406 692.867188 527.746094 691.808594 527.378906 C 690.753906 527.007812 689.71875 526.589844 688.699219 526.125 C 687.683594 525.660156 686.6875 525.144531 685.71875 524.585938 C 684.75 524.027344 683.808594 523.425781 682.898438 522.777344 C 681.984375 522.132812 681.105469 521.441406 680.257812 520.714844 L 617.234375 457.28125 L 556.054688 518.414062 C 555.25 519.347656 554.402344 520.238281 553.507812 521.082031 C 552.613281 521.925781 551.675781 522.722656 550.699219 523.472656 C 549.722656 524.222656 548.710938 524.917969 547.664062 525.5625 C 546.613281 526.207031 545.535156 526.796875 544.425781 527.332031 C 543.316406 527.867188 542.183594 528.339844 541.023438 528.757812 C 539.867188 529.175781 538.691406 529.53125 537.496094 529.828125 C 536.300781 530.125 535.09375 530.359375 533.875 530.53125 C 532.65625 530.703125 531.429688 530.8125 530.199219 530.855469 C 528.96875 530.902344 527.738281 530.886719 526.511719 530.804688 C 525.28125 530.726562 524.0625 530.582031 522.847656 530.375 C 521.632812 530.167969 520.433594 529.902344 519.246094 529.574219 C 518.0625 529.242188 516.894531 528.855469 515.75 528.402344 C 514.601562 527.953125 513.484375 527.449219 512.390625 526.882812 C 511.296875 526.316406 510.234375 525.699219 509.203125 525.023438 C 508.171875 524.351562 507.179688 523.625 506.226562 522.851562 C 505.269531 522.074219 504.355469 521.25 503.484375 520.382812 C 502.613281 519.511719 501.792969 518.597656 501.015625 517.644531 C 500.238281 516.691406 499.511719 515.699219 498.839844 514.667969 C 498.164062 513.640625 497.542969 512.578125 496.980469 511.484375 C 496.414062 510.390625 495.90625 509.273438 495.457031 508.128906 C 495.007812 506.984375 494.617188 505.816406 494.289062 504.632812 C 493.957031 503.445312 493.691406 502.25 493.484375 501.035156 C 493.277344 499.824219 493.132812 498.601562 493.054688 497.375 C 492.972656 496.148438 492.957031 494.917969 493 493.6875 C 493.046875 492.460938 493.15625 491.234375 493.328125 490.019531 C 493.5 488.800781 493.734375 487.59375 494.03125 486.398438 C 494.328125 485.207031 494.683594 484.03125 495.101562 482.871094 C 495.519531 481.714844 495.996094 480.582031 496.53125 479.472656 C 497.0625 478.367188 497.652344 477.289062 498.300781 476.238281 C 498.945312 475.191406 499.640625 474.179688 500.390625 473.203125 C 501.140625 472.226562 501.9375 471.292969 502.785156 470.398438 C 503.628906 469.503906 504.519531 468.65625 505.453125 467.855469 L 566.632812 406.722656 L 503.152344 343.75 C 502.21875 342.949219 501.332031 342.101562 500.484375 341.207031 C 499.640625 340.3125 498.839844 339.378906 498.089844 338.402344 C 497.34375 337.425781 496.644531 336.414062 496 335.367188 C 495.355469 334.316406 494.765625 333.238281 494.230469 332.132812 C 493.695312 331.023438 493.21875 329.890625 492.800781 328.734375 C 492.386719 327.574219 492.027344 326.398438 491.730469 325.207031 C 491.433594 324.011719 491.199219 322.804688 491.027344 321.585938 C 490.855469 320.371094 490.746094 319.144531 490.703125 317.917969 C 490.65625 316.6875 490.671875 315.457031 490.753906 314.230469 C 490.832031 313.003906 490.976562 311.785156 491.183594 310.570312 C 491.390625 309.359375 491.65625 308.160156 491.988281 306.972656 C 492.316406 305.789062 492.707031 304.621094 493.15625 303.476562 C 493.605469 302.332031 494.113281 301.214844 494.679688 300.121094 C 495.246094 299.027344 495.863281 297.964844 496.539062 296.9375 C 497.210938 295.90625 497.9375 294.914062 498.714844 293.960938 C 499.492188 293.007812 500.316406 292.09375 501.1875 291.222656 C 502.054688 290.355469 502.96875 289.53125 503.925781 288.753906 C 504.878906 287.980469 505.871094 287.253906 506.902344 286.582031 C 507.933594 285.90625 508.996094 285.289062 510.089844 284.722656 C 511.183594 284.15625 512.300781 283.652344 513.449219 283.203125 C 514.59375 282.753906 515.761719 282.363281 516.945312 282.03125 C 518.132812 281.703125 519.332031 281.4375 520.546875 281.230469 C 521.761719 281.023438 522.980469 280.878906 524.210938 280.800781 C 525.4375 280.71875 526.667969 280.703125 527.898438 280.75 C 529.128906 280.792969 530.355469 280.902344 531.574219 281.074219 C 532.792969 281.246094 534 281.480469 535.195312 281.777344 C 536.390625 282.074219 537.566406 282.429688 538.722656 282.847656 C 539.882812 283.265625 541.015625 283.742188 542.125 284.273438 C 543.234375 284.808594 544.3125 285.398438 545.363281 286.042969 C 546.410156 286.6875 547.421875 287.382812 548.402344 288.132812 C 549.378906 288.882812 550.3125 289.679688 551.207031 290.523438 C 552.101562 291.367188 552.949219 292.257812 553.753906 293.191406 L 617.234375 356.160156 L 682.097656 291.351562 C 695.894531 277.5625 718.898438 277.5625 732.695312 291.351562 Z M 732.695312 291.351562 " fill-opacity="1" fill-rule="nonzero"/></g></svg>