<svg xmlns="http://www.w3.org/2000/svg" xmlns:xlink="http://www.w3.org/1999/xlink" width="1080" zoomAndPan="magnify" viewBox="0 0 810 809.999993" height="1080" preserveAspectRatio="xMidYMid meet" version="1.0"><defs><clipPath id="41b4026ab8"><path d="M 231.808594 188 L 578.308594 188 L 578.308594 623 L 231.808594 623 Z M 231.808594 188 " clip-rule="nonzero"/></clipPath></defs><g clip-path="url(#41b4026ab8)"><path fill="#ffffff" d="M 268.769531 508.464844 C 267.558594 508.464844 266.351562 508.40625 265.148438 508.285156 C 263.941406 508.167969 262.746094 507.992188 261.558594 507.753906 C 260.371094 507.519531 259.199219 507.226562 258.042969 506.875 C 256.882812 506.523438 255.746094 506.113281 254.625 505.652344 C 253.507812 505.1875 252.414062 504.671875 251.347656 504.101562 C 250.28125 503.53125 249.242188 502.910156 248.238281 502.238281 C 247.230469 501.566406 246.257812 500.84375 245.324219 500.078125 C 244.386719 499.308594 243.492188 498.5 242.636719 497.644531 C 241.78125 496.789062 240.96875 495.890625 240.199219 494.957031 C 239.433594 494.019531 238.710938 493.050781 238.039062 492.042969 C 237.367188 491.039062 236.746094 490 236.175781 488.933594 C 235.605469 487.867188 235.085938 486.773438 234.625 485.65625 C 234.160156 484.539062 233.753906 483.402344 233.402344 482.242188 C 233.050781 481.085938 232.757812 479.914062 232.519531 478.726562 C 232.285156 477.539062 232.105469 476.34375 231.988281 475.140625 C 231.871094 473.933594 231.808594 472.726562 231.808594 471.515625 L 231.808594 338.507812 C 231.808594 337.296875 231.871094 336.089844 231.988281 334.886719 C 232.105469 333.683594 232.285156 332.488281 232.519531 331.300781 C 232.757812 330.113281 233.050781 328.941406 233.402344 327.785156 C 233.753906 326.625 234.160156 325.488281 234.625 324.371094 C 235.085938 323.25 235.605469 322.160156 236.175781 321.09375 C 236.746094 320.023438 237.367188 318.988281 238.039062 317.980469 C 238.710938 316.976562 239.433594 316.003906 240.199219 315.070312 C 240.96875 314.132812 241.78125 313.238281 242.636719 312.382812 C 243.492188 311.527344 244.386719 310.714844 245.324219 309.949219 C 246.257812 309.179688 247.230469 308.460938 248.238281 307.789062 C 249.242188 307.117188 250.28125 306.496094 251.347656 305.925781 C 252.414062 305.355469 253.507812 304.835938 254.625 304.375 C 255.746094 303.910156 256.882812 303.503906 258.042969 303.152344 C 259.199219 302.800781 260.371094 302.507812 261.558594 302.273438 C 262.746094 302.035156 263.941406 301.859375 265.148438 301.738281 C 266.351562 301.621094 267.558594 301.5625 268.769531 301.5625 L 370.410156 301.5625 L 535.34375 192.566406 C 536.382812 191.882812 537.464844 191.273438 538.585938 190.734375 C 539.707031 190.195312 540.859375 189.734375 542.042969 189.351562 C 543.226562 188.96875 544.429688 188.664062 545.65625 188.441406 C 546.878906 188.222656 548.113281 188.082031 549.355469 188.027344 C 550.597656 187.972656 551.839844 188 553.078125 188.113281 C 554.320312 188.222656 555.546875 188.417969 556.757812 188.695312 C 557.972656 188.972656 559.160156 189.328125 560.324219 189.765625 C 561.492188 190.203125 562.621094 190.714844 563.714844 191.304688 C 564.8125 191.894531 565.863281 192.554688 566.871094 193.285156 C 567.878906 194.015625 568.832031 194.808594 569.730469 195.667969 C 570.632812 196.527344 571.46875 197.441406 572.246094 198.414062 C 573.023438 199.386719 573.730469 200.40625 574.371094 201.472656 C 575.011719 202.539062 575.574219 203.644531 576.066406 204.789062 C 576.554688 205.929688 576.96875 207.101562 577.300781 208.300781 C 577.632812 209.5 577.882812 210.714844 578.054688 211.945312 C 578.222656 213.179688 578.308594 214.417969 578.308594 215.660156 L 578.308594 594.367188 C 578.308594 595.609375 578.222656 596.847656 578.054688 598.082031 C 577.882812 599.3125 577.632812 600.527344 577.300781 601.726562 C 576.96875 602.925781 576.554688 604.097656 576.066406 605.238281 C 575.574219 606.382812 575.011719 607.488281 574.371094 608.554688 C 573.730469 609.621094 573.023438 610.640625 572.246094 611.613281 C 571.46875 612.585938 570.632812 613.5 569.730469 614.359375 C 568.832031 615.21875 567.878906 616.011719 566.871094 616.742188 C 565.863281 617.472656 564.8125 618.132812 563.714844 618.722656 C 562.621094 619.3125 561.492188 619.824219 560.324219 620.261719 C 559.160156 620.695312 557.972656 621.054688 556.757812 621.332031 C 555.546875 621.609375 554.320312 621.800781 553.078125 621.914062 C 551.839844 622.023438 550.597656 622.054688 549.355469 621.996094 C 548.113281 621.941406 546.878906 621.804688 545.65625 621.582031 C 544.429688 621.359375 543.226562 621.058594 542.042969 620.675781 C 540.859375 620.292969 539.707031 619.832031 538.585938 619.292969 C 537.464844 618.753906 536.382812 618.140625 535.34375 617.457031 L 370.410156 508.464844 Z M 268.769531 508.464844 " fill-opacity="1" fill-rule="nonzero"/></g></svg>