<svg xmlns="http://www.w3.org/2000/svg" xmlns:xlink="http://www.w3.org/1999/xlink" width="1080" zoomAndPan="magnify" viewBox="0 0 810 809.999993" height="1080" preserveAspectRatio="xMidYMid meet" version="1.0"><defs><clipPath id="35a5f70d1e"><path d="M 14.195312 82.246094 L 807.695312 82.246094 L 807.695312 724.542969 L 14.195312 724.542969 Z M 14.195312 82.246094 " clip-rule="nonzero"/></clipPath><clipPath id="7b4bf13f29"><path d="M 0 186 L 349.5 186 L 349.5 625 L 0 625 Z M 0 186 " clip-rule="nonzero"/></clipPath></defs><g clip-path="url(#35a5f70d1e)"><path fill="#ffffff" d="M 681.851562 92.820312 C 686.933594 97.917969 691.886719 103.136719 696.710938 108.480469 C 701.535156 113.824219 706.222656 119.28125 710.777344 124.851562 C 715.335938 130.425781 719.75 136.105469 724.027344 141.894531 C 728.300781 147.6875 732.433594 153.578125 736.417969 159.570312 C 740.40625 165.5625 744.242188 171.652344 747.925781 177.832031 C 751.613281 184.015625 755.144531 190.28125 758.523438 196.636719 C 761.898438 202.992188 765.117188 209.429688 768.179688 215.941406 C 771.242188 222.457031 774.140625 229.042969 776.875 235.699219 C 779.613281 242.355469 782.183594 249.074219 784.589844 255.855469 C 786.996094 262.640625 789.230469 269.476562 791.300781 276.371094 C 793.371094 283.265625 795.269531 290.203125 796.996094 297.191406 C 798.722656 304.175781 800.277344 311.203125 801.660156 318.265625 C 803.039062 325.328125 804.246094 332.421875 805.28125 339.542969 C 806.3125 346.664062 807.167969 353.808594 807.851562 360.972656 C 808.53125 368.136719 809.035156 375.3125 809.363281 382.503906 C 809.6875 389.691406 809.839844 396.886719 809.8125 404.082031 C 809.785156 411.277344 809.582031 418.46875 809.203125 425.65625 C 808.820312 432.84375 808.261719 440.015625 807.53125 447.175781 C 806.796875 454.335938 805.886719 461.472656 804.800781 468.585938 C 803.714844 475.699219 802.457031 482.785156 801.023438 489.835938 C 799.585938 496.886719 797.980469 503.902344 796.203125 510.875 C 794.421875 517.847656 792.472656 524.773438 790.351562 531.652344 C 788.230469 538.527344 785.945312 545.351562 783.488281 552.113281 C 781.03125 558.878906 778.410156 565.582031 775.625 572.214844 C 772.839844 578.851562 769.890625 585.414062 766.78125 591.90625 C 763.671875 598.398438 760.40625 604.808594 756.980469 611.136719 C 753.558594 617.46875 749.980469 623.710938 746.246094 629.863281 C 742.515625 636.019531 738.632812 642.078125 734.605469 648.042969 C 730.574219 654.003906 726.398438 659.867188 722.082031 665.625 C 717.761719 671.382812 713.304688 677.027344 708.707031 682.566406 C 704.109375 688.105469 699.378906 693.527344 694.515625 698.835938 C 689.652344 704.140625 684.660156 709.324219 679.542969 714.382812 C 666.144531 728.238281 643.972656 728.238281 630.574219 714.382812 C 629.773438 713.582031 629.011719 712.742188 628.292969 711.867188 C 627.574219 710.988281 626.902344 710.082031 626.273438 709.136719 C 625.644531 708.195312 625.0625 707.222656 624.527344 706.222656 C 623.992188 705.222656 623.507812 704.199219 623.074219 703.152344 C 622.640625 702.105469 622.261719 701.039062 621.933594 699.957031 C 621.601562 698.871094 621.328125 697.773438 621.105469 696.660156 C 620.886719 695.550781 620.71875 694.429688 620.609375 693.300781 C 620.496094 692.171875 620.441406 691.042969 620.441406 689.910156 C 620.441406 688.777344 620.496094 687.644531 620.609375 686.515625 C 620.71875 685.390625 620.886719 684.269531 621.105469 683.15625 C 621.328125 682.046875 621.601562 680.949219 621.933594 679.863281 C 622.261719 678.777344 622.640625 677.710938 623.074219 676.664062 C 623.507812 675.617188 623.992188 674.59375 624.527344 673.59375 C 625.0625 672.59375 625.644531 671.625 626.273438 670.679688 C 626.902344 669.738281 627.574219 668.828125 628.292969 667.953125 C 629.011719 667.074219 629.773438 666.238281 630.574219 665.433594 C 634.894531 661.175781 639.105469 656.8125 643.207031 652.347656 C 647.308594 647.882812 651.300781 643.316406 655.179688 638.652344 C 659.058594 633.992188 662.820312 629.234375 666.464844 624.386719 C 670.109375 619.539062 673.632812 614.605469 677.03125 609.585938 C 680.433594 604.5625 683.707031 599.460938 686.859375 594.28125 C 690.007812 589.097656 693.027344 583.839844 695.917969 578.507812 C 698.8125 573.179688 701.570312 567.78125 704.195312 562.3125 C 706.820312 556.847656 709.308594 551.316406 711.660156 545.730469 C 714.011719 540.140625 716.226562 534.496094 718.300781 528.796875 C 720.375 523.097656 722.308594 517.351562 724.101562 511.558594 C 725.890625 505.765625 727.539062 499.933594 729.042969 494.058594 C 730.546875 488.183594 731.90625 482.273438 733.121094 476.332031 C 734.332031 470.390625 735.398438 464.425781 736.316406 458.429688 C 737.238281 452.4375 738.007812 446.421875 738.632812 440.390625 C 739.253906 434.359375 739.726562 428.316406 740.054688 422.261719 C 740.378906 416.207031 740.554688 410.144531 740.582031 404.082031 C 740.609375 398.019531 740.484375 391.957031 740.214844 385.898438 C 739.941406 379.839844 739.519531 373.792969 738.953125 367.757812 C 738.382812 361.71875 737.664062 355.699219 736.796875 349.699219 C 735.929688 343.695312 734.917969 337.71875 733.757812 331.769531 C 732.597656 325.816406 731.289062 319.894531 729.835938 314.007812 C 728.386719 308.121094 726.789062 302.273438 725.046875 296.464844 C 723.308594 290.652344 721.425781 284.890625 719.402344 279.175781 C 717.378906 273.457031 715.214844 267.796875 712.910156 262.1875 C 710.605469 256.574219 708.167969 251.027344 705.589844 245.535156 C 703.015625 240.046875 700.304688 234.625 697.460938 229.265625 C 694.617188 223.910156 691.640625 218.628906 688.539062 213.417969 C 685.433594 208.207031 682.203125 203.078125 678.847656 198.027344 C 675.492188 192.976562 672.011719 188.011719 668.410156 183.128906 C 664.808594 178.25 661.089844 173.460938 657.253906 168.765625 C 653.414062 164.070312 649.464844 159.46875 645.402344 154.96875 C 641.335938 150.464844 637.164062 146.066406 632.882812 141.769531 C 619.027344 127.917969 619.027344 106.210938 632.882812 92.820312 C 646.742188 78.964844 668.453125 78.964844 681.851562 92.820312 Z M 580.222656 172.246094 C 584.035156 175.996094 587.75 179.835938 591.371094 183.769531 C 594.992188 187.703125 598.515625 191.722656 601.9375 195.832031 C 605.355469 199.9375 608.675781 204.128906 611.890625 208.402344 C 615.101562 212.671875 618.207031 217.023438 621.207031 221.449219 C 624.203125 225.875 627.089844 230.371094 629.863281 234.941406 C 632.640625 239.511719 635.300781 244.144531 637.84375 248.847656 C 640.390625 253.546875 642.816406 258.308594 645.125 263.128906 C 647.433594 267.953125 649.621094 272.828125 651.6875 277.757812 C 653.753906 282.6875 655.695312 287.667969 657.515625 292.691406 C 659.332031 297.71875 661.027344 302.785156 662.59375 307.898438 C 664.164062 313.007812 665.605469 318.152344 666.914062 323.335938 C 668.230469 328.515625 669.410156 333.726562 670.464844 338.96875 C 671.519531 344.207031 672.441406 349.472656 673.234375 354.757812 C 674.027344 360.042969 674.6875 365.347656 675.21875 370.667969 C 675.75 375.984375 676.144531 381.3125 676.410156 386.652344 C 676.675781 391.992188 676.808594 397.332031 676.808594 402.679688 C 676.808594 408.023438 676.675781 413.367188 676.410156 418.703125 C 676.144531 424.042969 675.75 429.371094 675.21875 434.691406 C 674.6875 440.011719 674.027344 445.3125 673.234375 450.597656 C 672.441406 455.886719 671.519531 461.148438 670.464844 466.386719 C 669.410156 471.628906 668.230469 476.839844 666.914062 482.023438 C 665.601562 487.203125 664.164062 492.347656 662.59375 497.460938 C 661.027344 502.570312 659.332031 507.636719 657.515625 512.664062 C 655.695312 517.691406 653.753906 522.667969 651.6875 527.597656 C 649.621094 532.53125 647.433594 537.40625 645.125 542.226562 C 642.816406 547.046875 640.390625 551.808594 637.84375 556.511719 C 635.300781 561.210938 632.640625 565.847656 629.863281 570.417969 C 627.089844 574.984375 624.203125 579.484375 621.207031 583.910156 C 618.207031 588.335938 615.101562 592.683594 611.886719 596.957031 C 608.675781 601.230469 605.355469 605.417969 601.9375 609.527344 C 598.515625 613.632812 594.992188 617.652344 591.371094 621.585938 C 587.75 625.519531 584.035156 629.359375 580.222656 633.109375 C 566.363281 646.964844 544.652344 646.5 531.253906 633.109375 C 517.398438 619.257812 517.398438 597.089844 531.253906 583.699219 C 534.25 580.753906 537.167969 577.734375 540.011719 574.644531 C 542.855469 571.554688 545.621094 568.398438 548.308594 565.171875 C 550.996094 561.941406 553.601562 558.652344 556.125 555.296875 C 558.648438 551.9375 561.089844 548.523438 563.441406 545.046875 C 565.796875 541.566406 568.066406 538.035156 570.242188 534.445312 C 572.421875 530.855469 574.511719 527.214844 576.511719 523.519531 C 578.507812 519.828125 580.414062 516.085938 582.226562 512.300781 C 584.039062 508.511719 585.757812 504.683594 587.382812 500.808594 C 589.003906 496.9375 590.53125 493.027344 591.957031 489.078125 C 593.386719 485.128906 594.71875 481.148438 595.949219 477.132812 C 597.179688 473.117188 598.3125 469.074219 599.34375 465.003906 C 600.371094 460.933594 601.300781 456.839844 602.128906 452.726562 C 602.957031 448.609375 603.683594 444.472656 604.304688 440.320312 C 604.925781 436.167969 605.445312 432.003906 605.863281 427.824219 C 606.277344 423.648438 606.589844 419.460938 606.796875 415.265625 C 607.007812 411.074219 607.109375 406.878906 607.109375 402.679688 C 607.109375 398.480469 607.007812 394.285156 606.796875 390.089844 C 606.589844 385.894531 606.277344 381.710938 605.863281 377.53125 C 605.445312 373.355469 604.925781 369.1875 604.304688 365.035156 C 603.683594 360.882812 602.957031 356.75 602.128906 352.632812 C 601.300781 348.515625 600.371094 344.421875 599.34375 340.351562 C 598.3125 336.28125 597.179688 332.238281 595.949219 328.222656 C 594.71875 324.210938 593.386719 320.230469 591.957031 316.28125 C 590.53125 312.332031 589.003906 308.421875 587.382812 304.546875 C 585.757812 300.675781 584.039062 296.84375 582.226562 293.058594 C 580.414062 289.269531 578.507812 285.53125 576.511719 281.835938 C 574.511719 278.144531 572.421875 274.503906 570.242188 270.914062 C 568.066406 267.324219 565.796875 263.789062 563.441406 260.3125 C 561.089844 256.835938 558.648438 253.417969 556.125 250.0625 C 553.601562 246.707031 550.996094 243.414062 548.308594 240.1875 C 545.621094 236.960938 542.855469 233.800781 540.011719 230.710938 C 537.167969 227.621094 534.25 224.605469 531.253906 221.660156 C 517.859375 207.804688 517.398438 186.101562 531.253906 172.710938 C 545.113281 158.855469 566.824219 158.855469 580.222656 172.246094 Z M 343.703125 197.644531 C 345.203125 199.90625 346.34375 202.332031 347.132812 204.925781 C 347.917969 207.519531 348.316406 210.171875 348.324219 212.882812 L 348.324219 594.320312 C 348.335938 595.582031 348.261719 596.839844 348.101562 598.089844 C 347.941406 599.339844 347.695312 600.578125 347.367188 601.796875 C 347.039062 603.011719 346.628906 604.203125 346.136719 605.367188 C 345.644531 606.527344 345.078125 607.652344 344.433594 608.738281 C 343.789062 609.820312 343.074219 610.859375 342.285156 611.84375 C 341.5 612.832031 340.648438 613.761719 339.734375 614.632812 C 338.820312 615.503906 337.855469 616.308594 336.832031 617.046875 C 335.804688 617.785156 334.738281 618.449219 333.625 619.042969 C 332.507812 619.636719 331.359375 620.148438 330.175781 620.585938 C 328.988281 621.019531 327.78125 621.375 326.546875 621.644531 C 325.316406 621.914062 324.070312 622.101562 322.808594 622.199219 C 321.550781 622.300781 320.292969 622.316406 319.03125 622.242188 C 317.773438 622.171875 316.523438 622.015625 315.285156 621.773438 C 314.046875 621.53125 312.828125 621.203125 311.632812 620.796875 C 310.441406 620.386719 309.277344 619.898438 308.152344 619.332031 C 307.023438 618.765625 305.9375 618.125 304.898438 617.410156 L 139.984375 507.503906 L 37.890625 507.503906 C 36.679688 507.503906 35.472656 507.445312 34.269531 507.324219 C 33.066406 507.207031 31.867188 507.03125 30.683594 506.792969 C 29.496094 506.558594 28.320312 506.265625 27.164062 505.914062 C 26.003906 505.5625 24.867188 505.15625 23.75 504.691406 C 22.632812 504.230469 21.539062 503.710938 20.46875 503.140625 C 19.402344 502.570312 18.367188 501.949219 17.359375 501.277344 C 16.355469 500.605469 15.382812 499.886719 14.445312 499.117188 C 13.511719 498.351562 12.617188 497.539062 11.757812 496.683594 C 10.902344 495.828125 10.09375 494.933594 9.324219 493.996094 C 8.554688 493.0625 7.835938 492.089844 7.164062 491.085938 C 6.492188 490.078125 5.871094 489.042969 5.300781 487.976562 C 4.730469 486.910156 4.210938 485.816406 3.75 484.699219 C 3.285156 483.582031 2.878906 482.441406 2.527344 481.285156 C 2.175781 480.128906 1.882812 478.953125 1.644531 477.769531 C 1.410156 476.582031 1.230469 475.386719 1.113281 474.183594 C 0.996094 472.976562 0.933594 471.769531 0.933594 470.5625 L 0.933594 336.644531 C 0.933594 335.433594 0.996094 334.226562 1.113281 333.023438 C 1.230469 331.816406 1.410156 330.621094 1.644531 329.4375 C 1.882812 328.25 2.175781 327.078125 2.527344 325.917969 C 2.878906 324.761719 3.285156 323.625 3.75 322.503906 C 4.210938 321.386719 4.730469 320.296875 5.300781 319.226562 C 5.871094 318.160156 6.492188 317.125 7.164062 316.117188 C 7.835938 315.113281 8.554688 314.140625 9.324219 313.207031 C 10.09375 312.273438 10.902344 311.375 11.757812 310.519531 C 12.617188 309.664062 13.511719 308.855469 14.445312 308.085938 C 15.382812 307.320312 16.355469 306.597656 17.359375 305.925781 C 18.367188 305.253906 19.402344 304.632812 20.46875 304.0625 C 21.539062 303.492188 22.632812 302.976562 23.75 302.511719 C 24.867188 302.050781 26.003906 301.640625 27.164062 301.292969 C 28.320312 300.941406 29.496094 300.644531 30.683594 300.410156 C 31.867188 300.175781 33.066406 299.996094 34.269531 299.878906 C 35.472656 299.757812 36.679688 299.699219 37.890625 299.699219 L 139.519531 299.699219 L 304.898438 189.796875 C 305.660156 189.28125 306.445312 188.804688 307.253906 188.363281 C 308.0625 187.925781 308.890625 187.53125 309.738281 187.175781 C 310.585938 186.820312 311.449219 186.507812 312.328125 186.238281 C 313.207031 185.96875 314.097656 185.742188 315 185.5625 C 315.902344 185.382812 316.808594 185.246094 317.722656 185.15625 C 318.640625 185.066406 319.554688 185.019531 320.476562 185.023438 C 321.394531 185.023438 322.3125 185.070312 323.226562 185.160156 C 324.140625 185.253906 325.050781 185.390625 325.949219 185.570312 C 326.851562 185.753906 327.742188 185.980469 328.621094 186.25 C 329.5 186.523438 330.363281 186.835938 331.210938 187.191406 C 332.058594 187.550781 332.882812 187.949219 333.691406 188.386719 C 334.5 188.824219 335.285156 189.304688 336.042969 189.820312 C 336.804688 190.335938 337.535156 190.890625 338.242188 191.480469 C 338.945312 192.070312 339.621094 192.695312 340.265625 193.351562 C 340.90625 194.007812 341.515625 194.695312 342.089844 195.414062 C 342.664062 196.128906 343.203125 196.875 343.703125 197.644531 Z M 433.320312 253.058594 C 447.179688 239.207031 468.890625 239.667969 482.289062 253.058594 C 484.691406 255.472656 487.035156 257.945312 489.316406 260.472656 C 491.597656 263 493.816406 265.582031 495.972656 268.21875 C 498.125 270.855469 500.214844 273.542969 502.238281 276.285156 C 504.261719 279.023438 506.214844 281.8125 508.097656 284.648438 C 509.984375 287.484375 511.800781 290.363281 513.542969 293.289062 C 515.289062 296.214844 516.957031 299.179688 518.554688 302.1875 C 520.15625 305.195312 521.675781 308.238281 523.125 311.320312 C 524.574219 314.402344 525.945312 317.515625 527.242188 320.667969 C 528.535156 323.816406 529.753906 326.996094 530.890625 330.203125 C 532.03125 333.414062 533.089844 336.648438 534.070312 339.910156 C 535.050781 343.171875 535.949219 346.453125 536.765625 349.757812 C 537.585938 353.0625 538.320312 356.386719 538.976562 359.730469 C 539.632812 363.070312 540.203125 366.425781 540.691406 369.796875 C 541.183594 373.164062 541.589844 376.542969 541.914062 379.933594 C 542.238281 383.324219 542.476562 386.71875 542.632812 390.121094 C 542.789062 393.523438 542.863281 396.925781 542.851562 400.332031 C 542.84375 403.734375 542.746094 407.136719 542.570312 410.539062 C 542.390625 413.9375 542.128906 417.332031 541.785156 420.71875 C 541.441406 424.109375 541.011719 427.484375 540.5 430.851562 C 539.992188 434.21875 539.398438 437.570312 538.722656 440.90625 C 538.046875 444.242188 537.289062 447.5625 536.449219 450.863281 C 535.609375 454.164062 534.691406 457.441406 533.691406 460.695312 C 532.691406 463.949219 531.609375 467.179688 530.453125 470.378906 C 529.292969 473.582031 528.054688 476.753906 526.742188 479.894531 C 525.425781 483.035156 524.035156 486.144531 522.566406 489.214844 C 521.097656 492.289062 519.558594 495.324219 517.941406 498.320312 C 516.324219 501.316406 514.632812 504.273438 512.871094 507.1875 C 511.109375 510.101562 509.277344 512.96875 507.375 515.792969 C 505.46875 518.617188 503.5 521.390625 501.457031 524.117188 C 499.417969 526.847656 497.3125 529.519531 495.140625 532.144531 C 492.972656 534.769531 490.734375 537.335938 488.4375 539.851562 C 486.140625 542.363281 483.78125 544.820312 481.363281 547.21875 C 467.507812 561.070312 445.792969 561.070312 432.398438 547.21875 C 418.539062 533.363281 418.539062 511.660156 432.398438 498.269531 C 434.011719 496.667969 435.585938 495.03125 437.117188 493.351562 C 438.652344 491.675781 440.144531 489.960938 441.589844 488.210938 C 443.039062 486.457031 444.445312 484.671875 445.804688 482.851562 C 447.167969 481.03125 448.480469 479.179688 449.753906 477.296875 C 451.023438 475.410156 452.246094 473.496094 453.421875 471.550781 C 454.59375 469.605469 455.722656 467.632812 456.800781 465.632812 C 457.878906 463.632812 458.90625 461.609375 459.886719 459.558594 C 460.867188 457.507812 461.792969 455.433594 462.667969 453.335938 C 463.546875 451.238281 464.371094 449.121094 465.144531 446.984375 C 465.914062 444.847656 466.636719 442.695312 467.300781 440.523438 C 467.96875 438.347656 468.582031 436.160156 469.140625 433.960938 C 469.699219 431.757812 470.203125 429.542969 470.652344 427.3125 C 471.101562 425.085938 471.496094 422.851562 471.835938 420.601562 C 472.175781 418.355469 472.457031 416.101562 472.6875 413.84375 C 472.917969 411.582031 473.089844 409.316406 473.207031 407.046875 C 473.324219 404.777344 473.382812 402.507812 473.390625 400.234375 C 473.394531 397.960938 473.34375 395.691406 473.238281 393.421875 C 473.132812 391.152344 472.96875 388.886719 472.75 386.625 C 472.535156 384.363281 472.261719 382.109375 471.929688 379.859375 C 471.601562 377.609375 471.21875 375.371094 470.777344 373.140625 C 470.339844 370.914062 469.847656 368.695312 469.296875 366.492188 C 468.75 364.285156 468.148438 362.09375 467.492188 359.917969 C 466.835938 357.742188 466.125 355.585938 465.363281 353.445312 C 464.601562 351.304688 463.785156 349.183594 462.917969 347.082031 C 462.054688 344.984375 461.136719 342.90625 460.164062 340.847656 C 459.195312 338.792969 458.179688 336.761719 457.109375 334.757812 C 456.039062 332.753906 454.921875 330.773438 453.757812 328.824219 C 452.589844 326.875 451.375 324.953125 450.113281 323.0625 C 448.855469 321.171875 447.546875 319.3125 446.195312 317.488281 C 444.84375 315.660156 443.445312 313.871094 442.007812 312.113281 C 440.566406 310.355469 439.082031 308.632812 437.558594 306.949219 C 436.03125 305.261719 434.464844 303.617188 432.859375 302.007812 C 419.464844 288.15625 419.925781 266.453125 433.320312 253.058594 Z M 433.320312 253.058594 " fill-opacity="1" fill-rule="nonzero"/></g><g clip-path="url(#7b4bf13f29)"><path fill="#ffffff" d="M 37.28125 509.46875 C 36.058594 509.46875 34.839844 509.410156 33.625 509.289062 C 32.410156 509.171875 31.203125 508.992188 30.007812 508.753906 C 28.808594 508.515625 27.625 508.21875 26.457031 507.863281 C 25.289062 507.507812 24.140625 507.097656 23.011719 506.628906 C 21.886719 506.164062 20.78125 505.640625 19.707031 505.066406 C 18.628906 504.492188 17.582031 503.863281 16.566406 503.183594 C 15.554688 502.507812 14.574219 501.78125 13.628906 501.003906 C 12.6875 500.230469 11.78125 499.410156 10.917969 498.546875 C 10.054688 497.683594 9.238281 496.78125 8.460938 495.835938 C 7.6875 494.890625 6.960938 493.914062 6.28125 492.898438 C 5.605469 491.882812 4.976562 490.835938 4.402344 489.757812 C 3.828125 488.679688 3.304688 487.578125 2.835938 486.449219 C 2.371094 485.320312 1.960938 484.171875 1.605469 483.003906 C 1.25 481.835938 0.953125 480.652344 0.714844 479.453125 C 0.476562 478.257812 0.300781 477.050781 0.179688 475.835938 C 0.0585938 474.621094 0 473.402344 0 472.179688 L 0 337.9375 C 0 336.71875 0.0585938 335.5 0.179688 334.285156 C 0.300781 333.070312 0.476562 331.863281 0.714844 330.664062 C 0.953125 329.46875 1.25 328.285156 1.605469 327.113281 C 1.960938 325.945312 2.371094 324.796875 2.835938 323.667969 C 3.304688 322.542969 3.828125 321.4375 4.402344 320.363281 C 4.976562 319.285156 5.605469 318.238281 6.28125 317.222656 C 6.960938 316.207031 7.6875 315.226562 8.460938 314.285156 C 9.238281 313.339844 10.054688 312.4375 10.917969 311.570312 C 11.78125 310.707031 12.6875 309.890625 13.628906 309.113281 C 14.574219 308.339844 15.554688 307.613281 16.566406 306.933594 C 17.582031 306.257812 18.628906 305.628906 19.707031 305.054688 C 20.78125 304.476562 21.886719 303.957031 23.011719 303.488281 C 24.140625 303.019531 25.289062 302.609375 26.457031 302.257812 C 27.625 301.902344 28.808594 301.605469 30.007812 301.367188 C 31.203125 301.128906 32.410156 300.949219 33.625 300.828125 C 34.839844 300.710938 36.058594 300.648438 37.28125 300.648438 L 139.800781 300.648438 L 306.160156 190.648438 C 307.210938 189.957031 308.300781 189.339844 309.429688 188.796875 C 310.5625 188.253906 311.726562 187.789062 312.917969 187.398438 C 314.113281 187.011719 315.328125 186.707031 316.5625 186.484375 C 317.796875 186.261719 319.042969 186.121094 320.296875 186.066406 C 321.550781 186.007812 322.800781 186.039062 324.050781 186.152344 C 325.300781 186.261719 326.539062 186.460938 327.761719 186.738281 C 328.984375 187.019531 330.183594 187.378906 331.359375 187.820312 C 332.535156 188.261719 333.675781 188.777344 334.78125 189.371094 C 335.886719 189.964844 336.945312 190.632812 337.960938 191.371094 C 338.976562 192.105469 339.9375 192.910156 340.847656 193.777344 C 341.753906 194.644531 342.601562 195.566406 343.382812 196.546875 C 344.167969 197.527344 344.882812 198.558594 345.527344 199.632812 C 346.171875 200.710938 346.742188 201.824219 347.234375 202.980469 C 347.730469 204.132812 348.144531 205.316406 348.480469 206.523438 C 348.816406 207.734375 349.070312 208.960938 349.242188 210.203125 C 349.410156 211.449219 349.496094 212.699219 349.5 213.953125 L 349.5 596.167969 C 349.496094 597.421875 349.410156 598.671875 349.242188 599.914062 C 349.070312 601.160156 348.816406 602.386719 348.480469 603.59375 C 348.144531 604.804688 347.730469 605.984375 347.234375 607.140625 C 346.742188 608.292969 346.171875 609.410156 345.527344 610.484375 C 344.882812 611.5625 344.167969 612.589844 343.382812 613.574219 C 342.601562 614.554688 341.753906 615.476562 340.847656 616.34375 C 339.941406 617.210938 338.976562 618.011719 337.960938 618.75 C 336.945312 619.488281 335.886719 620.152344 334.78125 620.746094 C 333.675781 621.34375 332.535156 621.859375 331.359375 622.300781 C 330.183594 622.742188 328.984375 623.101562 327.761719 623.382812 C 326.539062 623.660156 325.300781 623.855469 324.050781 623.96875 C 322.800781 624.082031 321.550781 624.109375 320.296875 624.054688 C 319.042969 624 317.796875 623.859375 316.5625 623.636719 C 315.328125 623.410156 314.113281 623.105469 312.917969 622.71875 C 311.726562 622.332031 310.5625 621.867188 309.429688 621.324219 C 308.300781 620.78125 307.210938 620.164062 306.160156 619.472656 L 139.800781 509.46875 Z M 37.28125 509.46875 " fill-opacity="1" fill-rule="nonzero"/></g></svg>