<svg xmlns="http://www.w3.org/2000/svg" xmlns:xlink="http://www.w3.org/1999/xlink" width="1080" zoomAndPan="magnify" viewBox="0 0 810 809.999993" height="1080" preserveAspectRatio="xMidYMid meet" version="1.0"><defs><clipPath id="ec02899999"><path d="M 135.351562 188 L 674.601562 188 L 674.601562 622 L 135.351562 622 Z M 135.351562 188 " clip-rule="nonzero"/></clipPath></defs><g clip-path="url(#ec02899999)"><path fill="#ffffff" d="M 476.414062 200.902344 C 477.910156 203.15625 479.050781 205.582031 479.835938 208.171875 C 480.621094 210.761719 481.015625 213.414062 481.023438 216.121094 L 481.023438 594.253906 C 481.019531 595.496094 480.9375 596.730469 480.765625 597.960938 C 480.597656 599.191406 480.347656 600.40625 480.015625 601.601562 C 479.683594 602.796875 479.273438 603.96875 478.785156 605.109375 C 478.292969 606.25 477.730469 607.355469 477.09375 608.417969 C 476.457031 609.484375 475.75 610.503906 474.972656 611.472656 C 474.199219 612.441406 473.363281 613.355469 472.464844 614.214844 C 471.566406 615.074219 470.617188 615.867188 469.613281 616.59375 C 468.605469 617.324219 467.558594 617.984375 466.464844 618.570312 C 465.371094 619.160156 464.242188 619.671875 463.082031 620.109375 C 461.917969 620.542969 460.734375 620.898438 459.523438 621.175781 C 458.3125 621.453125 457.089844 621.648438 455.851562 621.757812 C 454.617188 621.871094 453.378906 621.898438 452.136719 621.84375 C 450.898438 621.789062 449.667969 621.648438 448.445312 621.429688 C 447.226562 621.207031 446.023438 620.90625 444.84375 620.523438 C 443.660156 620.140625 442.511719 619.679688 441.394531 619.140625 C 440.273438 618.601562 439.195312 617.992188 438.160156 617.308594 L 273.621094 508.480469 L 172.222656 508.480469 C 171.015625 508.480469 169.808594 508.421875 168.609375 508.304688 C 167.40625 508.183594 166.214844 508.007812 165.027344 507.773438 C 163.84375 507.535156 162.675781 507.242188 161.519531 506.890625 C 160.363281 506.542969 159.226562 506.136719 158.113281 505.671875 C 156.996094 505.210938 155.90625 504.695312 154.839844 504.125 C 153.777344 503.554688 152.742188 502.933594 151.738281 502.261719 C 150.734375 501.59375 149.765625 500.875 148.832031 500.105469 C 147.898438 499.339844 147.003906 498.53125 146.148438 497.675781 C 145.296875 496.820312 144.484375 495.925781 143.71875 494.992188 C 142.953125 494.058594 142.234375 493.089844 141.5625 492.085938 C 140.894531 491.082031 140.273438 490.046875 139.703125 488.980469 C 139.136719 487.914062 138.617188 486.824219 138.15625 485.707031 C 137.695312 484.589844 137.289062 483.453125 136.9375 482.296875 C 136.585938 481.140625 136.292969 479.972656 136.058594 478.785156 C 135.824219 477.601562 135.644531 476.410156 135.527344 475.207031 C 135.410156 474.003906 135.351562 472.796875 135.351562 471.589844 L 135.351562 338.78125 C 135.351562 337.574219 135.410156 336.367188 135.527344 335.167969 C 135.644531 333.964844 135.824219 332.769531 136.058594 331.585938 C 136.292969 330.398438 136.585938 329.230469 136.9375 328.074219 C 137.289062 326.917969 137.695312 325.78125 138.15625 324.664062 C 138.617188 323.546875 139.136719 322.457031 139.703125 321.390625 C 140.273438 320.328125 140.894531 319.292969 141.5625 318.285156 C 142.234375 317.28125 142.953125 316.3125 143.71875 315.378906 C 144.484375 314.445312 145.296875 313.550781 146.148438 312.695312 C 147.003906 311.84375 147.898438 311.03125 148.832031 310.265625 C 149.765625 309.5 150.734375 308.78125 151.738281 308.109375 C 152.742188 307.4375 153.777344 306.816406 154.839844 306.246094 C 155.90625 305.675781 156.996094 305.160156 158.113281 304.699219 C 159.226562 304.238281 160.363281 303.832031 161.519531 303.480469 C 162.675781 303.128906 163.84375 302.835938 165.027344 302.601562 C 166.214844 302.363281 167.40625 302.1875 168.609375 302.070312 C 169.808594 301.949219 171.015625 301.890625 172.222656 301.890625 L 273.621094 301.890625 L 438.160156 193.0625 C 438.914062 192.566406 439.691406 192.105469 440.492188 191.6875 C 441.292969 191.265625 442.113281 190.882812 442.949219 190.542969 C 443.785156 190.203125 444.640625 189.90625 445.503906 189.648438 C 446.371094 189.390625 447.25 189.179688 448.136719 189.007812 C 449.023438 188.835938 449.917969 188.710938 450.820312 188.625 C 451.71875 188.542969 452.621094 188.503906 453.523438 188.511719 C 454.429688 188.515625 455.332031 188.566406 456.230469 188.660156 C 457.128906 188.753906 458.019531 188.890625 458.90625 189.074219 C 459.792969 189.253906 460.667969 189.476562 461.53125 189.746094 C 462.394531 190.011719 463.242188 190.320312 464.074219 190.671875 C 464.910156 191.023438 465.722656 191.414062 466.519531 191.84375 C 467.3125 192.273438 468.085938 192.742188 468.832031 193.25 C 469.582031 193.753906 470.304688 194.296875 471 194.875 C 471.699219 195.449219 472.363281 196.058594 473 196.703125 C 473.636719 197.34375 474.238281 198.015625 474.808594 198.71875 C 475.378906 199.417969 475.914062 200.148438 476.414062 200.902344 Z M 566.289062 255.316406 C 579.65625 241.480469 601.316406 241.480469 614.683594 255.316406 C 617.074219 257.722656 619.402344 260.191406 621.667969 262.714844 C 623.9375 265.234375 626.144531 267.8125 628.285156 270.445312 C 630.425781 273.074219 632.503906 275.757812 634.515625 278.488281 C 636.523438 281.222656 638.464844 284.003906 640.339844 286.832031 C 642.214844 289.660156 644.019531 292.53125 645.75 295.449219 C 647.484375 298.367188 649.144531 301.324219 650.734375 304.324219 C 652.324219 307.320312 653.835938 310.355469 655.277344 313.429688 C 656.714844 316.5 658.078125 319.609375 659.367188 322.746094 C 660.652344 325.886719 661.863281 329.054688 662.992188 332.253906 C 664.125 335.453125 665.179688 338.679688 666.152344 341.929688 C 667.125 345.179688 668.019531 348.453125 668.832031 351.746094 C 669.644531 355.042969 670.375 358.355469 671.027344 361.683594 C 671.679688 365.015625 672.246094 368.359375 672.734375 371.71875 C 673.21875 375.074219 673.625 378.445312 673.945312 381.820312 C 674.265625 385.199219 674.507812 388.585938 674.660156 391.972656 C 674.816406 395.363281 674.890625 398.753906 674.878906 402.148438 C 674.867188 405.542969 674.773438 408.933594 674.597656 412.320312 C 674.421875 415.710938 674.160156 419.09375 673.816406 422.46875 C 673.476562 425.84375 673.050781 429.210938 672.542969 432.566406 C 672.035156 435.921875 671.445312 439.261719 670.773438 442.589844 C 670.101562 445.914062 669.347656 449.222656 668.515625 452.511719 C 667.679688 455.800781 666.765625 459.066406 665.773438 462.3125 C 664.777344 465.554688 663.707031 468.773438 662.554688 471.964844 C 661.402344 475.15625 660.171875 478.320312 658.867188 481.449219 C 657.558594 484.582031 656.175781 487.679688 654.71875 490.742188 C 653.257812 493.808594 651.726562 496.832031 650.121094 499.820312 C 648.511719 502.808594 646.832031 505.757812 645.082031 508.664062 C 643.332031 511.570312 641.507812 514.429688 639.617188 517.246094 C 637.726562 520.0625 635.765625 522.832031 633.738281 525.550781 C 631.710938 528.269531 629.617188 530.941406 627.457031 533.558594 C 625.300781 536.175781 623.078125 538.738281 620.792969 541.246094 C 618.511719 543.753906 616.167969 546.207031 613.761719 548.601562 C 612.960938 549.398438 612.125 550.160156 611.25 550.875 C 610.375 551.59375 609.464844 552.265625 608.527344 552.894531 C 607.585938 553.523438 606.613281 554.105469 605.617188 554.636719 C 604.621094 555.171875 603.597656 555.652344 602.550781 556.085938 C 601.507812 556.519531 600.445312 556.898438 599.359375 557.226562 C 598.277344 557.554688 597.183594 557.832031 596.074219 558.050781 C 594.964844 558.273438 593.84375 558.4375 592.71875 558.546875 C 591.59375 558.660156 590.464844 558.714844 589.335938 558.714844 C 588.203125 558.714844 587.074219 558.660156 585.949219 558.546875 C 584.824219 558.4375 583.707031 558.273438 582.597656 558.050781 C 581.488281 557.832031 580.390625 557.554688 579.308594 557.226562 C 578.226562 556.898438 577.160156 556.519531 576.117188 556.085938 C 575.070312 555.652344 574.050781 555.171875 573.050781 554.636719 C 572.054688 554.105469 571.085938 553.523438 570.144531 552.894531 C 569.203125 552.265625 568.292969 551.59375 567.417969 550.875 C 566.542969 550.160156 565.707031 549.398438 564.90625 548.601562 C 564.128906 547.773438 563.394531 546.914062 562.695312 546.019531 C 562 545.125 561.347656 544.199219 560.742188 543.246094 C 560.132812 542.289062 559.570312 541.304688 559.054688 540.296875 C 558.539062 539.285156 558.074219 538.253906 557.65625 537.199219 C 557.234375 536.148438 556.867188 535.078125 556.550781 533.988281 C 556.234375 532.898438 555.96875 531.796875 555.757812 530.683594 C 555.542969 529.570312 555.382812 528.449219 555.277344 527.324219 C 555.171875 526.195312 555.117188 525.0625 555.117188 523.929688 C 555.117188 522.796875 555.171875 521.664062 555.277344 520.535156 C 555.382812 519.40625 555.542969 518.285156 555.757812 517.171875 C 555.96875 516.058594 556.234375 514.957031 556.550781 513.871094 C 556.867188 512.78125 557.234375 511.710938 557.65625 510.65625 C 558.074219 509.601562 558.539062 508.570312 559.054688 507.5625 C 559.570312 506.554688 560.132812 505.570312 560.742188 504.613281 C 561.347656 503.65625 562 502.730469 562.695312 501.835938 C 563.394531 500.941406 564.128906 500.082031 564.90625 499.257812 C 566.503906 497.667969 568.0625 496.035156 569.578125 494.367188 C 571.09375 492.699219 572.570312 490.996094 574.003906 489.253906 C 575.4375 487.515625 576.828125 485.738281 578.175781 483.929688 C 579.523438 482.121094 580.824219 480.28125 582.082031 478.410156 C 583.339844 476.539062 584.550781 474.636719 585.714844 472.703125 C 586.878906 470.773438 587.996094 468.8125 589.0625 466.828125 C 590.132812 464.839844 591.152344 462.832031 592.121094 460.792969 C 593.089844 458.757812 594.011719 456.699219 594.878906 454.621094 C 595.75 452.539062 596.566406 450.4375 597.335938 448.316406 C 598.101562 446.195312 598.816406 444.054688 599.476562 441.902344 C 600.140625 439.746094 600.75 437.574219 601.304688 435.386719 C 601.859375 433.203125 602.363281 431.003906 602.8125 428.792969 C 603.261719 426.582031 603.65625 424.363281 603.996094 422.132812 C 604.335938 419.902344 604.621094 417.667969 604.851562 415.421875 C 605.082031 413.179688 605.257812 410.929688 605.378906 408.679688 C 605.5 406.425781 605.566406 404.171875 605.574219 401.917969 C 605.585938 399.664062 605.542969 397.40625 605.441406 395.15625 C 605.34375 392.902344 605.1875 390.652344 604.980469 388.40625 C 604.769531 386.160156 604.503906 383.921875 604.1875 381.6875 C 603.867188 379.457031 603.492188 377.230469 603.066406 375.015625 C 602.636719 372.800781 602.15625 370.601562 601.621094 368.410156 C 601.085938 366.21875 600.496094 364.042969 599.855469 361.878906 C 599.214844 359.714844 598.519531 357.570312 597.773438 355.441406 C 597.027344 353.316406 596.226562 351.207031 595.378906 349.117188 C 594.527344 347.027344 593.628906 344.960938 592.675781 342.914062 C 591.726562 340.871094 590.726562 338.851562 589.675781 336.855469 C 588.628906 334.859375 587.53125 332.890625 586.382812 330.945312 C 585.238281 329.003906 584.046875 327.089844 582.804688 325.207031 C 581.566406 323.324219 580.28125 321.46875 578.953125 319.648438 C 577.621094 317.828125 576.25 316.039062 574.832031 314.285156 C 573.414062 312.53125 571.953125 310.8125 570.453125 309.132812 C 568.953125 307.449219 567.410156 305.804688 565.828125 304.195312 C 565.027344 303.394531 564.269531 302.558594 563.554688 301.683594 C 562.835938 300.808594 562.164062 299.898438 561.535156 298.957031 C 560.90625 298.015625 560.328125 297.046875 559.792969 296.046875 C 559.261719 295.050781 558.777344 294.027344 558.347656 292.980469 C 557.914062 291.9375 557.535156 290.871094 557.207031 289.789062 C 556.878906 288.707031 556.601562 287.609375 556.382812 286.5 C 556.160156 285.386719 555.996094 284.269531 555.886719 283.144531 C 555.773438 282.015625 555.71875 280.886719 555.71875 279.757812 C 555.71875 278.625 555.773438 277.496094 555.886719 276.371094 C 555.996094 275.242188 556.160156 274.125 556.382812 273.015625 C 556.601562 271.90625 556.878906 270.808594 557.207031 269.722656 C 557.535156 268.640625 557.914062 267.578125 558.347656 266.53125 C 558.777344 265.484375 559.261719 264.464844 559.792969 263.464844 C 560.328125 262.464844 560.90625 261.496094 561.535156 260.554688 C 562.164062 259.613281 562.835938 258.707031 563.554688 257.832031 C 564.269531 256.953125 565.027344 256.117188 565.828125 255.316406 Z M 566.289062 255.316406 " fill-opacity="1" fill-rule="nonzero"/></g></svg>