<svg xmlns="http://www.w3.org/2000/svg" xmlns:xlink="http://www.w3.org/1999/xlink" width="1080" zoomAndPan="magnify" viewBox="0 0 810 809.999993" height="1080" preserveAspectRatio="xMidYMid meet" version="1.0"><defs><clipPath id="8599402ef5"><path d="M 67 163.855469 L 743.28125 163.855469 L 743.28125 646 L 67 646 Z M 67 163.855469 " clip-rule="nonzero"/></clipPath></defs><g clip-path="url(#8599402ef5)"><path fill="#ffffff" d="M 646.722656 174.332031 C 650.523438 178.085938 654.234375 181.933594 657.84375 185.875 C 661.457031 189.8125 664.96875 193.839844 668.382812 197.949219 C 671.796875 202.0625 675.105469 206.257812 678.3125 210.535156 C 681.519531 214.8125 684.617188 219.164062 687.605469 223.59375 C 690.597656 228.023438 693.476562 232.523438 696.242188 237.097656 C 699.011719 241.667969 701.664062 246.304688 704.203125 251.007812 C 706.738281 255.710938 709.160156 260.476562 711.460938 265.296875 C 713.765625 270.121094 715.945312 274.996094 718.007812 279.929688 C 720.066406 284.859375 722.003906 289.839844 723.820312 294.863281 C 725.632812 299.890625 727.324219 304.960938 728.886719 310.070312 C 730.449219 315.179688 731.886719 320.324219 733.195312 325.507812 C 734.503906 330.6875 735.683594 335.898438 736.734375 341.136719 C 737.785156 346.378906 738.707031 351.640625 739.496094 356.925781 C 740.285156 362.210938 740.945312 367.511719 741.472656 372.832031 C 742 378.148438 742.398438 383.476562 742.664062 388.8125 C 742.925781 394.148438 743.058594 399.492188 743.058594 404.835938 C 743.058594 410.179688 742.925781 415.519531 742.664062 420.855469 C 742.398438 426.195312 742 431.523438 741.472656 436.839844 C 740.945312 442.15625 740.285156 447.457031 739.496094 452.742188 C 738.707031 458.027344 737.785156 463.292969 736.734375 468.53125 C 735.683594 473.769531 734.503906 478.980469 733.195312 484.164062 C 731.886719 489.34375 730.449219 494.488281 728.886719 499.601562 C 727.324219 504.710938 725.632812 509.777344 723.820312 514.804688 C 722.003906 519.832031 720.066406 524.808594 718.007812 529.742188 C 715.945312 534.671875 713.765625 539.550781 711.460938 544.371094 C 709.160156 549.195312 706.738281 553.957031 704.203125 558.660156 C 701.664062 563.363281 699.011719 568.003906 696.242188 572.574219 C 693.476562 577.144531 690.597656 581.648438 687.605469 586.078125 C 684.617188 590.507812 681.519531 594.859375 678.3125 599.136719 C 675.105469 603.410156 671.796875 607.605469 668.382812 611.71875 C 664.972656 615.832031 661.457031 619.855469 657.84375 623.796875 C 654.234375 627.734375 650.523438 631.582031 646.722656 635.335938 C 632.832031 649.222656 611.070312 649.222656 597.644531 635.335938 C 583.753906 621.453125 584.214844 599.699219 597.644531 586.273438 C 600.648438 583.328125 603.578125 580.304688 606.429688 577.210938 C 609.285156 574.117188 612.0625 570.957031 614.757812 567.726562 C 617.457031 564.496094 620.074219 561.199219 622.605469 557.835938 C 625.140625 554.476562 627.589844 551.054688 629.953125 547.574219 C 632.316406 544.089844 634.59375 540.550781 636.785156 536.957031 C 638.972656 533.363281 641.070312 529.714844 643.078125 526.015625 C 645.085938 522.316406 647 518.570312 648.824219 514.773438 C 650.644531 510.980469 652.371094 507.144531 654.003906 503.265625 C 655.632812 499.386719 657.167969 495.46875 658.605469 491.511719 C 660.042969 487.554688 661.382812 483.566406 662.621094 479.542969 C 663.859375 475.523438 665 471.472656 666.039062 467.394531 C 667.074219 463.316406 668.011719 459.214844 668.847656 455.089844 C 669.683594 450.964844 670.414062 446.820312 671.042969 442.660156 C 671.671875 438.496094 672.199219 434.324219 672.621094 430.136719 C 673.042969 425.949219 673.359375 421.753906 673.574219 417.550781 C 673.789062 413.347656 673.898438 409.140625 673.902344 404.933594 C 673.910156 400.722656 673.808594 396.515625 673.605469 392.3125 C 673.402344 388.109375 673.097656 383.914062 672.683594 379.726562 C 672.273438 375.535156 671.757812 371.359375 671.140625 367.199219 C 670.519531 363.035156 669.800781 358.890625 668.976562 354.761719 C 668.152344 350.636719 667.222656 346.53125 666.195312 342.449219 C 665.167969 338.371094 664.039062 334.316406 662.8125 330.289062 C 661.582031 326.265625 660.253906 322.273438 658.828125 318.3125 C 657.398438 314.355469 655.875 310.433594 654.253906 306.546875 C 652.632812 302.664062 650.914062 298.824219 649.101562 295.023438 C 647.292969 291.226562 645.386719 287.472656 643.386719 283.769531 C 641.390625 280.066406 639.300781 276.414062 637.121094 272.8125 C 634.941406 269.210938 632.671875 265.667969 630.316406 262.179688 C 627.960938 258.691406 625.523438 255.261719 622.996094 251.894531 C 620.472656 248.527344 617.863281 245.226562 615.175781 241.988281 C 612.484375 238.75 609.71875 235.582031 606.871094 232.480469 C 604.023438 229.378906 601.101562 226.351562 598.105469 223.394531 C 584.214844 209.972656 584.214844 188.21875 598.105469 174.332031 C 611.535156 160.445312 633.292969 160.445312 646.722656 174.332031 Z M 410.125 199.328125 C 411.671875 201.65625 412.839844 204.164062 413.628906 206.84375 C 414.417969 209.527344 414.792969 212.265625 414.753906 215.0625 L 414.753906 596.457031 C 414.769531 597.722656 414.695312 598.980469 414.535156 600.238281 C 414.371094 601.492188 414.128906 602.730469 413.796875 603.949219 C 413.46875 605.171875 413.058594 606.363281 412.566406 607.53125 C 412.074219 608.695312 411.503906 609.820312 410.855469 610.910156 C 410.210938 611.996094 409.492188 613.035156 408.707031 614.023438 C 407.917969 615.011719 407.066406 615.945312 406.148438 616.816406 C 405.234375 617.691406 404.261719 618.496094 403.238281 619.238281 C 402.210938 619.976562 401.140625 620.644531 400.023438 621.238281 C 398.90625 621.832031 397.753906 622.347656 396.566406 622.785156 C 395.378906 623.21875 394.167969 623.574219 392.929688 623.84375 C 391.695312 624.117188 390.445312 624.300781 389.183594 624.402344 C 387.925781 624.503906 386.660156 624.519531 385.398438 624.445312 C 384.136719 624.375 382.882812 624.214844 381.640625 623.972656 C 380.398438 623.730469 379.179688 623.40625 377.984375 622.996094 C 376.785156 622.585938 375.621094 622.097656 374.492188 621.527344 C 373.363281 620.960938 372.277344 620.316406 371.234375 619.601562 L 205.941406 509.902344 L 104.078125 509.902344 C 102.867188 509.902344 101.65625 509.84375 100.449219 509.726562 C 99.242188 509.605469 98.042969 509.429688 96.851562 509.191406 C 95.664062 508.957031 94.488281 508.660156 93.328125 508.308594 C 92.164062 507.957031 91.023438 507.550781 89.902344 507.085938 C 88.785156 506.621094 87.6875 506.101562 86.617188 505.53125 C 85.546875 504.960938 84.507812 504.335938 83.5 503.664062 C 82.492188 502.988281 81.519531 502.269531 80.582031 501.5 C 79.644531 500.730469 78.746094 499.914062 77.886719 499.058594 C 77.03125 498.199219 76.214844 497.304688 75.445312 496.367188 C 74.675781 495.429688 73.953125 494.457031 73.28125 493.445312 C 72.605469 492.4375 71.984375 491.398438 71.414062 490.328125 C 70.839844 489.261719 70.324219 488.164062 69.859375 487.046875 C 69.394531 485.925781 68.984375 484.785156 68.632812 483.625 C 68.28125 482.464844 67.988281 481.289062 67.75 480.097656 C 67.511719 478.910156 67.335938 477.710938 67.21875 476.503906 C 67.097656 475.296875 67.039062 474.085938 67.039062 472.875 L 67.039062 338.644531 C 67.039062 337.433594 67.097656 336.222656 67.21875 335.015625 C 67.335938 333.808594 67.511719 332.613281 67.75 331.421875 C 67.988281 330.234375 68.28125 329.058594 68.632812 327.898438 C 68.984375 326.738281 69.394531 325.597656 69.859375 324.476562 C 70.324219 323.355469 70.839844 322.261719 71.414062 321.191406 C 71.984375 320.121094 72.605469 319.082031 73.28125 318.074219 C 73.953125 317.066406 74.675781 316.09375 75.445312 315.15625 C 76.214844 314.21875 77.03125 313.320312 77.886719 312.464844 C 78.746094 311.605469 79.644531 310.792969 80.582031 310.023438 C 81.519531 309.253906 82.492188 308.53125 83.5 307.859375 C 84.507812 307.183594 85.546875 306.5625 86.617188 305.988281 C 87.6875 305.417969 88.785156 304.902344 89.902344 304.4375 C 91.023438 303.972656 92.164062 303.5625 93.328125 303.210938 C 94.488281 302.859375 95.664062 302.566406 96.851562 302.328125 C 98.042969 302.09375 99.242188 301.914062 100.449219 301.796875 C 101.65625 301.675781 102.867188 301.617188 104.078125 301.617188 L 205.941406 301.617188 L 371.234375 191.921875 C 371.988281 191.398438 372.769531 190.914062 373.574219 190.46875 C 374.375 190.023438 375.199219 189.621094 376.042969 189.257812 C 376.886719 188.894531 377.746094 188.574219 378.625 188.292969 C 379.5 188.015625 380.386719 187.78125 381.285156 187.59375 C 382.183594 187.402344 383.089844 187.257812 384.003906 187.15625 C 384.917969 187.058594 385.832031 187.003906 386.753906 186.992188 C 387.671875 186.984375 388.589844 187.019531 389.503906 187.101562 C 390.417969 187.183594 391.328125 187.308594 392.230469 187.480469 C 393.132812 187.652344 394.023438 187.871094 394.90625 188.128906 C 395.789062 188.390625 396.652344 188.695312 397.503906 189.039062 C 398.355469 189.386719 399.1875 189.773438 400 190.203125 C 400.8125 190.632812 401.601562 191.101562 402.367188 191.605469 C 403.132812 192.113281 403.875 192.65625 404.585938 193.238281 C 405.296875 193.820312 405.980469 194.433594 406.632812 195.082031 C 407.28125 195.730469 407.898438 196.40625 408.484375 197.117188 C 409.066406 197.828125 409.613281 198.5625 410.125 199.328125 Z M 499.949219 254.871094 C 513.839844 241.445312 535.601562 241.445312 549.027344 254.871094 C 551.433594 257.292969 553.777344 259.769531 556.058594 262.308594 C 558.34375 264.847656 560.5625 267.4375 562.71875 270.085938 C 564.875 272.730469 566.960938 275.429688 568.984375 278.179688 C 571.007812 280.929688 572.960938 283.726562 574.847656 286.570312 C 576.734375 289.414062 578.546875 292.304688 580.289062 295.238281 C 582.035156 298.175781 583.703125 301.148438 585.300781 304.167969 C 586.898438 307.183594 588.421875 310.238281 589.867188 313.328125 C 591.3125 316.417969 592.683594 319.542969 593.976562 322.703125 C 595.269531 325.863281 596.484375 329.050781 597.621094 332.269531 C 598.757812 335.488281 599.8125 338.730469 600.789062 342 C 601.769531 345.273438 602.664062 348.5625 603.476562 351.878906 C 604.292969 355.191406 605.027344 358.523438 605.675781 361.875 C 606.328125 365.226562 606.898438 368.589844 607.382812 371.96875 C 607.867188 375.347656 608.269531 378.734375 608.589844 382.132812 C 608.910156 385.53125 609.144531 388.933594 609.296875 392.34375 C 609.445312 395.753906 609.515625 399.164062 609.5 402.578125 C 609.484375 405.988281 609.382812 409.402344 609.199219 412.808594 C 609.015625 416.214844 608.746094 419.617188 608.398438 423.011719 C 608.046875 426.40625 607.613281 429.792969 607.09375 433.164062 C 606.578125 436.539062 605.976562 439.898438 605.292969 443.242188 C 604.613281 446.585938 603.847656 449.910156 603 453.21875 C 602.15625 456.523438 601.226562 459.808594 600.21875 463.066406 C 599.210938 466.328125 598.125 469.5625 596.960938 472.769531 C 595.792969 475.976562 594.546875 479.15625 593.226562 482.300781 C 591.902344 485.449219 590.503906 488.558594 589.027344 491.636719 C 587.550781 494.714844 586 497.753906 584.375 500.753906 C 582.75 503.757812 581.050781 506.714844 579.28125 509.632812 C 577.511719 512.550781 575.667969 515.425781 573.757812 518.253906 C 571.84375 521.078125 569.863281 523.859375 567.816406 526.589844 C 565.765625 529.320312 563.652344 531.996094 561.472656 534.621094 C 559.289062 537.25 557.046875 539.820312 554.742188 542.335938 C 552.433594 544.851562 550.066406 547.308594 547.636719 549.710938 C 546.851562 550.523438 546.027344 551.292969 545.164062 552.023438 C 544.300781 552.753906 543.402344 553.441406 542.46875 554.082031 C 541.539062 554.722656 540.574219 555.3125 539.582031 555.859375 C 538.589844 556.402344 537.574219 556.894531 536.535156 557.335938 C 535.492188 557.777344 534.429688 558.167969 533.351562 558.5 C 532.269531 558.835938 531.175781 559.117188 530.066406 559.34375 C 528.957031 559.566406 527.839844 559.738281 526.714844 559.851562 C 525.589844 559.964844 524.460938 560.019531 523.332031 560.019531 C 522.199219 560.019531 521.070312 559.964844 519.945312 559.851562 C 518.820312 559.738281 517.703125 559.566406 516.59375 559.34375 C 515.484375 559.117188 514.390625 558.835938 513.308594 558.5 C 512.230469 558.167969 511.167969 557.777344 510.128906 557.335938 C 509.085938 556.894531 508.070312 556.402344 507.078125 555.859375 C 506.085938 555.3125 505.125 554.722656 504.191406 554.082031 C 503.257812 553.441406 502.359375 552.753906 501.496094 552.023438 C 500.632812 551.292969 499.808594 550.523438 499.023438 549.710938 C 485.132812 535.824219 485.132812 514.070312 499.023438 500.183594 C 500.625 498.582031 502.183594 496.941406 503.703125 495.265625 C 505.222656 493.585938 506.703125 491.871094 508.136719 490.121094 C 509.574219 488.371094 510.96875 486.585938 512.316406 484.769531 C 513.664062 482.949219 514.96875 481.097656 516.226562 479.21875 C 517.484375 477.335938 518.695312 475.421875 519.863281 473.480469 C 521.027344 471.539062 522.144531 469.570312 523.210938 467.574219 C 524.28125 465.578125 525.300781 463.558594 526.269531 461.511719 C 527.238281 459.464844 528.15625 457.398438 529.027344 455.308594 C 529.894531 453.214844 530.710938 451.105469 531.476562 448.976562 C 532.242188 446.84375 532.953125 444.695312 533.613281 442.53125 C 534.273438 440.363281 534.882812 438.183594 535.433594 435.988281 C 535.988281 433.792969 536.488281 431.585938 536.933594 429.367188 C 537.378906 427.148438 537.769531 424.917969 538.105469 422.679688 C 538.441406 420.441406 538.722656 418.195312 538.949219 415.941406 C 539.175781 413.691406 539.347656 411.433594 539.464844 409.171875 C 539.582031 406.910156 539.640625 404.648438 539.644531 402.382812 C 539.652344 400.121094 539.601562 397.859375 539.496094 395.597656 C 539.390625 393.335938 539.230469 391.078125 539.015625 388.824219 C 538.796875 386.570312 538.527344 384.324219 538.203125 382.082031 C 537.875 379.84375 537.496094 377.613281 537.0625 375.390625 C 536.625 373.167969 536.136719 370.957031 535.59375 368.761719 C 535.050781 366.5625 534.453125 364.378906 533.804688 362.210938 C 533.15625 360.042969 532.453125 357.890625 531.699219 355.757812 C 530.941406 353.621094 530.136719 351.507812 529.277344 349.414062 C 528.417969 347.316406 527.507812 345.246094 526.550781 343.195312 C 525.589844 341.144531 524.578125 339.117188 523.519531 337.117188 C 522.460938 335.117188 521.355469 333.140625 520.199219 331.195312 C 519.042969 329.25 517.839844 327.332031 516.589844 325.441406 C 515.339844 323.554688 514.046875 321.699219 512.707031 319.875 C 511.367188 318.046875 509.980469 316.257812 508.554688 314.5 C 507.125 312.742188 505.65625 311.023438 504.144531 309.335938 C 502.632812 307.652344 501.078125 306.003906 499.484375 304.394531 C 498.691406 303.574219 497.941406 302.714844 497.230469 301.824219 C 496.519531 300.929688 495.851562 300.003906 495.230469 299.046875 C 494.605469 298.089844 494.03125 297.105469 493.503906 296.09375 C 492.976562 295.082031 492.5 294.042969 492.070312 292.988281 C 491.644531 291.929688 491.269531 290.851562 490.945312 289.757812 C 490.621094 288.664062 490.347656 287.554688 490.128906 286.433594 C 489.914062 285.3125 489.75 284.183594 489.640625 283.050781 C 489.53125 281.914062 489.476562 280.773438 489.476562 279.632812 C 489.476562 278.492188 489.53125 277.351562 489.640625 276.214844 C 489.75 275.078125 489.914062 273.949219 490.128906 272.828125 C 490.347656 271.710938 490.621094 270.601562 490.945312 269.507812 C 491.269531 268.414062 491.644531 267.335938 492.070312 266.277344 C 492.5 265.21875 492.976562 264.183594 493.503906 263.171875 C 494.03125 262.160156 494.605469 261.171875 495.230469 260.214844 C 495.851562 259.257812 496.519531 258.332031 497.230469 257.441406 C 497.941406 256.546875 498.691406 255.691406 499.484375 254.871094 Z M 499.949219 254.871094 " fill-opacity="1" fill-rule="nonzero"/></g></svg>